<?xml version="1.0" encoding="UTF-8" standalone="no"?>
<!-- Created with Inkscape (http://www.inkscape.org/) -->

<svg
   version="1.1"
   id="svg952"
   width="454.92267"
   height="257.448"
   viewBox="0 0 454.92267 257.448"
   xmlns="http://www.w3.org/2000/svg"
   xmlns:svg="http://www.w3.org/2000/svg">
  <defs
     id="defs956">
    <clipPath
       clipPathUnits="userSpaceOnUse"
       id="clipPath988">
      <path
         d="M 0,792 H 612 V 0 H 0 Z"
         id="path986" />
    </clipPath>
  </defs>
  <g
     id="g960"
     transform="matrix(1.3333333,0,0,-1.3333333,-181.20533,656.05733)">
    <g
       id="g962"
       transform="translate(135.9043,463.3091)">
      <path
         d="M 0,0 0.003,1.582 341.186,1.421 v -1.582 z"
         style="fill:#999999;fill-opacity:1;fill-rule:nonzero;stroke:none"
         id="path964" />
    </g>
    <g
       id="g966"
       transform="translate(135.9072,433.3706)">
      <path
         d="M 0,0 V 1.582 L 341.186,1.421 v -1.582 z"
         style="fill:#999999;fill-opacity:1;fill-rule:nonzero;stroke:none"
         id="path968" />
    </g>
    <g
       id="g970"
       transform="translate(135.9072,403.4351)">
      <path
         d="M 0,0 V 1.582 L 341.186,1.421 v -1.585 z"
         style="fill:#999999;fill-opacity:1;fill-rule:nonzero;stroke:none"
         id="path972" />
    </g>
    <g
       id="g974"
       transform="translate(135.9072,373.4941)">
      <path
         d="M 0,0 V 1.582 L 341.188,1.424 341.183,-0.158 Z"
         style="fill:#999999;fill-opacity:1;fill-rule:nonzero;stroke:none"
         id="path976" />
    </g>
    <g
       id="g978"
       transform="translate(135.9072,343.5586)">
      <path
         d="M 0,0 V 1.582 L 341.186,1.42 v -1.582 z"
         style="fill:#999999;fill-opacity:1;fill-rule:nonzero;stroke:none"
         id="path980" />
    </g>
    <g
       id="g982">
      <g
         id="g984"
         clip-path="url(#clipPath988)">
        <path
           d="m 323.489,460.116 h -8.074 V 348.834 h 8.074 z m 84.51,-108.928 -2.007,-7.483 h -96.114 v 120.837 l 92.783,-0.087 1.688,-7.398 h -54.211 c -2.192,0 -4.078,-0.671 -5.66,-2.007 -1.582,-1.339 -2.371,-3.044 -2.371,-5.109 v -39.246 h 52.202 v -7.486 h -52.202 v -44.9 c 0,-4.746 1.58,-7.121 4.747,-7.121 z"
           style="fill:#000000;fill-opacity:1;fill-rule:nonzero;stroke:none"
           id="path990" />
        <path
           d="m 433.745,460.227 h -8.08 V 348.633 h 8.08 z m 13.38,-116.37 h -24.062 v 120.955 h 24.062 z"
           style="fill:#000000;fill-opacity:1;fill-rule:nonzero;stroke:none"
           id="path992" />
        <g
           id="g994"
           transform="translate(228.6582,373.8242)">
          <path
             d="M 0,0 -38.335,84.147 H -52.389 L -8.03,-12.23 h 2.554 z M 59.689,-30.119 H 41.256 V 73.747 L -5.476,-30.119 h -3.647 l -44.722,97.655 v -97.655 h -8.036 V 90.718 h 39.615 L 9.492,21.721 39.428,90.718 h 20.261 z"
             style="fill:#000000;fill-opacity:1;fill-rule:nonzero;stroke:none"
             id="path996" />
        </g>
        <g
           id="g998"
           transform="translate(137.0498,312.5156)">
          <path
             d="M 0,0 V 1.588 H 57.735 V -0.809 L 0,-0.809 Z"
             style="fill:#999999;fill-opacity:1;fill-rule:nonzero;stroke:none"
             id="path1000" />
        </g>
        <g
           id="g1002"
           transform="translate(157.5986,299.4141)">
          <path
             d="M 0,0 C 9.504,-0.861 22.14,5.707 25.661,14.883 28.066,22.285 23.578,28.102 16.078,28.742 6.621,29.625 -6.094,22.906 -9.583,13.857 -11.707,6.188 -7.743,0.805 0,0"
             style="fill:#999999;fill-opacity:1;fill-rule:nonzero;stroke:#999999;stroke-width:0.762;stroke-linecap:butt;stroke-linejoin:round;stroke-miterlimit:10;stroke-dasharray:none;stroke-opacity:1"
             id="path1004" />
        </g>
        <g
           id="g1006"
           transform="translate(181.2764,319.3945)">
          <path
             d="M 0,0 V 94.429 L 3.062,94.277 V -0.156 H 0.773 Z"
             style="fill:#999999;fill-opacity:1;fill-rule:nonzero;stroke:none"
             id="path1008" />
        </g>
        <g
           id="g1010"
           transform="translate(258.6816,342.1875)">
          <path
             d="M 0,0 V 77.812 H 2.991 V 0 H 0.407 Z"
             style="fill:#999999;fill-opacity:1;fill-rule:nonzero;stroke:none"
             id="path1012" />
        </g>
        <g
           id="g1014"
           transform="translate(255.04,337.7363)">
          <path
             d="M 0,0 18.563,-16.678 10.266,-24.381 -8.382,-7.701 0,0 M 5.133,5.729 -14.109,-12.23 5.133,-30.201 24.378,-12.23 Z"
             style="fill:#999999;fill-opacity:1;fill-rule:nonzero;stroke:none"
             id="path1016" />
        </g>
        <g
           id="g1018"
           transform="translate(255.04,337.7363)">
          <path
             d="M 0,0 18.563,-16.678 10.266,-24.381 -8.382,-7.701 0,0 M 5.133,5.729 -14.109,-12.23 5.133,-30.201 24.378,-12.23 5.133,5.729"
             style="fill:none;stroke:#999999;stroke-width:0.571;stroke-linecap:butt;stroke-linejoin:round;stroke-miterlimit:10;stroke-dasharray:none;stroke-opacity:1"
             id="path1020" />
        </g>
        <g
           id="g1022"
           transform="translate(387.6289,378.6406)">
          <path
             d="M 0,0 C -4.236,2.789 -9.765,3.432 -14.675,1.855 -15.05,1.738 -17.651,1.059 -17.651,0.58 v -2.627 -10.904 -7.822 c 0,-0.2 -1.319,-0.387 -1.319,0.093 v 3.229 17.469 15.556 2.069 c 0,0.378 2.69,1.066 2.962,1.151 2.2,0.683 4.518,0.841 6.8,0.841 2.039,0 4.245,-0.515 6.229,-0.978 C -2.672,18.586 0,18.071 0,17.643 V 15.574 0"
             style="fill:#999999;fill-opacity:1;fill-rule:nonzero;stroke:#999999;stroke-width:0.571;stroke-linecap:butt;stroke-linejoin:round;stroke-miterlimit:10;stroke-dasharray:none;stroke-opacity:1"
             id="path1024" />
        </g>
        <g
           id="g1026"
           transform="translate(387.6289,360.9922)">
          <path
             d="m 0,0 c 3.278,1.629 5.774,2.607 9.489,2.607 3.12,0 6.744,-1.209 9.481,-2.607 v 15.238 2.346 c 0,0.35 -2.285,1.012 -2.64,1.135 -2.13,0.74 -4.497,0.914 -6.744,0.914 C 7.339,19.633 5.071,19.271 2.9,18.701 2.604,18.625 0,18.063 0,17.635 v -2.069 z"
             style="fill:#999999;fill-opacity:1;fill-rule:nonzero;stroke:none"
             id="path1028" />
        </g>
        <g
           id="g1030"
           transform="translate(387.6289,360.9922)">
          <path
             d="m 0,0 c 3.278,1.629 5.774,2.607 9.489,2.607 3.12,0 6.744,-1.209 9.481,-2.607 v 15.238 2.346 c 0,0.35 -2.285,1.012 -2.64,1.135 -2.13,0.74 -4.497,0.914 -6.744,0.914 C 7.339,19.633 5.071,19.271 2.9,18.701 2.604,18.625 0,18.063 0,17.635 v -2.069 z"
             style="fill:none;stroke:#999999;stroke-width:0.571;stroke-linecap:butt;stroke-linejoin:round;stroke-miterlimit:10;stroke-dasharray:none;stroke-opacity:1"
             id="path1032" />
        </g>
        <g
           id="g1034"
           transform="translate(200.4277,483.8345)">
          <path
             d="m 0,0 c 0,-3.932 0.167,-5.728 0.879,-7.321 0.732,-1.626 1.805,-2.338 3.164,-2.338 1.635,0 2.578,1.028 3.205,2.308 0.882,1.767 0.902,4.673 0.902,8.491 v 0.826 c 0,1.681 -0.082,3.105 -0.105,4.019 h 1.907 c 0,-0.539 0.021,-2.138 0.021,-4.046 V 0.8 c 0,-4.647 -0.252,-7.579 -1.673,-9.832 -1.137,-1.767 -2.476,-2.596 -4.512,-2.596 -1.022,0 -3.012,0.202 -4.353,2.909 -0.882,1.793 -1.26,3.703 -1.26,9.572 v 1.312 c 0,1.113 0.023,2.88 0.023,3.448 H 0.082 C 0.062,4.989 0,3.847 0,1.626 Z"
             style="fill:#000000;fill-opacity:1;fill-rule:nonzero;stroke:none"
             id="path1036" />
        </g>
        <g
           id="g1038"
           transform="translate(219.7783,474.7612)">
          <path
             d="m 0,0 c 1.928,0.516 4.383,1.57 4.383,3.507 0,1.254 -0.651,1.851 -2.033,2.763 -1.635,1.086 -2.83,2.109 -2.83,3.876 0,2.709 2.912,5.074 5.613,5.73 L 5.534,13.881 C 4.298,13.626 1.444,12.656 1.444,10.547 1.444,9.234 2.81,8.578 3.627,7.954 5.074,6.867 6.328,6.1 6.328,4.078 6.328,1.57 4.216,-0.964 0.483,-1.992 Z"
             style="fill:#000000;fill-opacity:1;fill-rule:nonzero;stroke:none"
             id="path1040" />
        </g>
        <g
           id="g1042"
           transform="translate(238.4902,480.0815)">
          <path
             d="m 0,0 c 0,-2.426 0.062,-6.753 0.082,-7.324 h -1.969 c 0.041,1.054 0.062,6.723 0.062,7.35 v 2.622 c 0,0.428 -0.062,6.411 -0.106,6.982 H 0.105 C 0.062,9.202 0,5.525 0,2.619 Z"
             style="fill:#000000;fill-opacity:1;fill-rule:nonzero;stroke:none"
             id="path1044" />
        </g>
        <g
           id="g1046"
           transform="translate(259.9414,472.5581)">
          <path
             d="m 0,0 c -0.354,-0.088 -1.233,-0.199 -2.388,-0.199 -6.498,0 -8.089,4.843 -8.089,7.18 0,4.102 2.851,9.033 9.367,10.6 l 0.293,-2.168 C -4.966,14.73 -8.525,11.596 -8.525,7.38 c 0,-2.851 1.775,-5.528 6.325,-5.528 0.776,0 1.573,0.14 2.012,0.281 z"
             style="fill:#000000;fill-opacity:1;fill-rule:nonzero;stroke:none"
             id="path1048" />
        </g>
        <g
           id="g1050"
           transform="translate(167.4541,475.1011)">
          <path
             d="m 0,0 v 14.52 h -2.323 v 2.422 H 4.301 L 9.398,3.668 14.549,16.942 h 6.697 V 14.52 H 18.908 V 0 h 2.338 V -2.426 H 13.951 V 0 h 2.312 V 14.52 L 9.58,-2.619 H 9.009 L 2.396,14.52 V 0 h 2.13 V -2.426 H -2.323 V 0 Z"
             style="fill:#000000;fill-opacity:1;fill-rule:nonzero;stroke:none"
             id="path1052" />
        </g>
        <g
           id="g1054"
           transform="translate(307.8564,472.7573)">
          <path
             d="M 0,0 C 0.105,1.822 0.305,14.432 0.387,16.939 H 0.492 C 1.037,16.14 10.849,5.956 11.435,5.188 c 0,0.683 -0.624,10.515 -0.607,11.312 l 1.866,-0.114 C 12.609,14.933 12.923,6.387 12.841,0.287 H 12.756 C 12.211,0.94 1.96,11.61 1.731,11.953 H 1.688 C 1.731,11.496 1.904,0.624 1.928,-0.173 Z"
             style="fill:#000000;fill-opacity:1;fill-rule:nonzero;stroke:none"
             id="path1056" />
        </g>
        <g
           id="g1058"
           transform="translate(342.8164,473.0415)">
          <path
             d="m 0,0 c -0.354,-0.085 -1.233,-0.202 -2.388,-0.202 -6.498,0 -8.089,4.362 -8.089,6.7 0,4.102 2.851,9.032 9.367,10.6 l 0.296,-2.168 c -4.149,-0.683 -7.711,-3.818 -7.711,-8.034 0,-2.85 1.778,-5.044 6.328,-5.044 0.773,0 1.57,0.143 2.009,0.287 z"
             style="fill:#000000;fill-opacity:1;fill-rule:nonzero;stroke:none"
             id="path1060" />
        </g>
        <g
           id="g1062"
           transform="translate(363.415,481.7339)">
          <path
             d="m 0,0 c 0,4.327 -2.224,6.495 -4.717,6.495 -3.331,0 -5.32,-3.36 -5.32,-7.494 0,-3.618 1.778,-6.498 4.693,-6.498 C -2.473,-7.497 0,-4.79 0,0 m -11.968,-1.371 c 0,5.388 2.912,9.747 7.524,9.747 3.688,0 6.389,-3.05 6.389,-8.262 0,-3.794 -1.966,-9.489 -7.459,-9.489 -4.169,0 -6.454,3.729 -6.454,8.004"
             style="fill:#000000;fill-opacity:1;fill-rule:nonzero;stroke:none"
             id="path1064" />
        </g>
        <g
           id="g1066"
           transform="translate(378.0986,474.7495)">
          <path
             d="m 0,0 c 5.112,0.457 7.629,4.359 7.629,7.896 0,3.729 -2.83,5.273 -7.629,5.156 z m -1.805,8.663 c 0,0.513 -0.017,5.616 -0.102,6.299 1.093,0 3.041,0.029 4.696,-0.141 6.223,-0.659 6.765,-4.673 6.765,-6.357 0,-7.749 -6.472,-10.573 -11.482,-10.573 0.085,1.113 0.123,7.125 0.123,7.781 z"
             style="fill:#000000;fill-opacity:1;fill-rule:nonzero;stroke:none"
             id="path1068" />
        </g>
        <g
           id="g1070"
           transform="translate(400.1533,480.0815)">
          <path
             d="m 0,0 c 0,-2.426 0.062,-6.753 0.082,-7.324 h -1.969 c 0.041,1.054 0.062,6.723 0.062,7.35 v 2.622 c 0,0.428 -0.062,6.411 -0.106,6.982 H 0.105 C 0.062,9.202 0,5.525 0,2.619 Z"
             style="fill:#000000;fill-opacity:1;fill-rule:nonzero;stroke:none"
             id="path1072" />
        </g>
        <g
           id="g1074"
           transform="translate(411.5498,472.7573)">
          <path
             d="m 0,0 c 0.103,1.822 0.627,15.416 0.712,17.921 h 0.105 c 0.545,-0.797 9.282,-12.765 9.868,-13.535 0,0.685 0.044,11.885 0.064,12.682 l 1.866,-0.114 C 12.533,15.501 12.173,5.584 12.091,-0.516 H 12.006 C 11.464,0.141 2.285,12.595 2.054,12.938 H 2.01 C 2.054,12.48 1.904,0.624 1.928,-0.173 Z"
             style="fill:#000000;fill-opacity:1;fill-rule:nonzero;stroke:none"
             id="path1076" />
        </g>
        <g
           id="g1078"
           transform="translate(445.71,476.5425)">
          <path
             d="m 0,0 c 0,-0.938 0.041,-3.103 0.041,-3.416 -0.858,-0.428 -2.619,-0.768 -4.213,-0.768 -4.315,0 -6.87,3.077 -6.87,7.093 0,2.851 2.221,8.236 9.217,10.717 l 0.378,-2.224 c -4.125,-1.054 -7.647,-4.673 -7.647,-8.519 0,-2.537 1.55,-5.215 5.323,-5.215 0.794,0 1.591,0.141 1.969,0.34 v 3.934 c 0,0.712 -0.044,1.538 -0.064,1.679 L 0,3.621 V 1.77 Z"
             style="fill:#000000;fill-opacity:1;fill-rule:nonzero;stroke:none"
             id="path1080" />
        </g>
        <g
           id="g1082"
           transform="translate(283.7686,474.395)">
          <path
             d="m 0,0 v 14.52 h -2.502 v 2.422 h 16.09 V 11.109 H 11.194 V 14.52 H 2.924 V 8.757 h 7.198 V 6.334 H 2.924 V 0 h 8.27 v 3.521 h 2.394 V -2.423 H -2.502 V 0 Z"
             style="fill:#000000;fill-opacity:1;fill-rule:nonzero;stroke:none"
             id="path1084" />
        </g>
        <g
           id="g1086"
           transform="translate(311.6123,316.7578)">
          <path
             d="m 0,0 c 0.105,1.822 0.627,15.416 0.712,17.92 h 0.105 c 0.545,-0.797 9.285,-12.764 9.871,-13.535 0,0.685 0.041,11.886 0.064,12.683 l 1.863,-0.115 C 12.533,15.5 12.173,5.584 12.091,-0.516 H 12.006 C 11.464,0.141 2.288,12.594 2.057,12.938 H 2.01 C 2.057,12.48 1.907,0.623 1.928,-0.174 Z"
             style="fill:#000000;fill-opacity:1;fill-rule:nonzero;stroke:none"
             id="path1088" />
        </g>
        <g
           id="g1090"
           transform="translate(332.8291,324.3066)">
          <path
             d="m 0,0 c 0,-2.422 0.064,-6.752 0.085,-7.324 h -1.969 c 0.041,1.054 0.062,6.724 0.062,7.353 v 2.619 c 0,0.432 -0.062,6.416 -0.106,6.983 H 0.105 C 0.064,9.205 0,5.529 0,2.623 Z"
             style="fill:#000000;fill-opacity:1;fill-rule:nonzero;stroke:none"
             id="path1092" />
        </g>
        <g
           id="g1094"
           transform="translate(343.2412,316.957)">
          <path
             d="m 0,0 c 0.105,0.621 0.126,7.689 0.126,11.539 v 3.391 c -2.159,0 -4.86,-0.116 -5.13,-0.227 v 2.307 c 0.545,-0.197 5.048,-0.287 5.259,-0.287 h 1.673 c 0.36,0 4.509,0.09 5.115,0.287 V 14.703 C 7.002,14.814 3.48,14.93 1.951,14.93 V 11.168 C 1.951,6.236 2.142,0.48 2.183,0 Z"
             style="fill:#000000;fill-opacity:1;fill-rule:nonzero;stroke:none"
             id="path1096" />
        </g>
        <g
           id="g1098"
           transform="translate(359.5713,324.3047)">
          <path
             d="m 0,0 c 0,-2.42 0.062,-6.75 0.085,-7.322 h -1.972 c 0.044,1.052 0.065,6.724 0.065,7.357 V 2.65 c 0,0.432 -0.065,6.414 -0.103,6.983 h 2.03 C 0.062,9.207 0,5.531 0,2.625 Z"
             style="fill:#000000;fill-opacity:1;fill-rule:nonzero;stroke:none"
             id="path1100" />
        </g>
        <g
           id="g1102"
           transform="translate(376.9063,324.1934)">
          <path
             d="M 0,0 C -0.214,0.539 -2.411,6.008 -2.599,6.412 -2.874,5.842 -4.948,0.111 -5.112,-0.287 Z m -9.451,-6.643 c 1.005,2.424 6.454,16.129 6.873,17.073 h 0.044 C -0.923,6.979 3.604,-3.932 4.84,-6.469 L 3.141,-7.867 C 2.81,-6.955 0.838,-2.166 0.647,-1.74 l -6.474,-0.34 c -0.252,-0.772 -1.72,-4.99 -2.01,-5.813 z"
             style="fill:#000000;fill-opacity:1;fill-rule:nonzero;stroke:none"
             id="path1104" />
        </g>
        <g
           id="g1106"
           transform="translate(392.1172,316.957)">
          <path
             d="m 0,0 c 0.105,0.623 0.126,7.693 0.126,11.539 v 3.391 c -2.156,0 -4.86,-0.116 -5.133,-0.229 v 2.309 c 0.548,-0.199 5.051,-0.287 5.262,-0.287 h 1.676 c 0.357,0 4.506,0.088 5.112,0.287 V 14.701 C 7.002,14.814 3.48,14.93 1.951,14.93 V 11.168 C 1.951,6.24 2.142,0.48 2.183,0 Z"
             style="fill:#000000;fill-opacity:1;fill-rule:nonzero;stroke:none"
             id="path1108" />
        </g>
        <g
           id="g1110"
           transform="translate(408.4268,324.3066)">
          <path
             d="m 0,0 c 0,-2.422 0.062,-6.752 0.082,-7.324 h -1.969 c 0.038,1.054 0.062,6.724 0.062,7.357 v 2.615 c 0,0.432 -0.062,6.416 -0.106,6.983 H 0.103 C 0.062,9.205 0,5.529 0,2.623 Z"
             style="fill:#000000;fill-opacity:1;fill-rule:nonzero;stroke:none"
             id="path1112" />
        </g>
        <g
           id="g1114"
           transform="translate(431.7266,333.3516)">
          <path
             d="m 0,0 c -0.609,-1.252 -6.393,-15.299 -7.063,-16.98 h -0.041 c -0.358,0.796 -5.954,15.875 -6.458,16.98 l 1.741,1.201 c 0.293,-1.111 4.529,-12.908 4.904,-13.68 0.316,0.596 5.007,12.883 5.238,13.68 z"
             style="fill:#000000;fill-opacity:1;fill-rule:nonzero;stroke:none"
             id="path1116" />
        </g>
        <g
           id="g1118"
           transform="translate(448.3584,316.6289)">
          <path
             d="m 0,0 c -0.627,0 -6.369,0.254 -6.747,0.254 0.064,1.283 0.064,6.469 0.064,7.037 v 3.221 c 0,0.4 -0.041,6.242 -0.064,6.697 0.463,0 5.429,0.371 6.375,0.457 l 0.082,-2.051 c -0.817,0 -4.257,-0.117 -4.567,-0.117 V 9.574 c 0.351,0 2.786,0.114 3.937,0.254 l 0.065,-2.08 c -0.317,0 -1.216,0.029 -2.098,0.059 -0.861,0 -1.696,0.029 -1.904,0.029 v -5.76 c 0.457,0 3.014,-0.055 4.795,0.088 z"
             style="fill:#000000;fill-opacity:1;fill-rule:nonzero;stroke:none"
             id="path1120" />
        </g>
        <g
           id="g1122"
           transform="translate(299.2432,318.2012)">
          <path
             d="m 0,0 v 14.518 h -2.086 v 2.425 H 5.013 V 14.518 H 2.924 V 0 H 5.013 V -2.422 H -2.086 V 0 Z"
             style="fill:#000000;fill-opacity:1;fill-rule:nonzero;stroke:none"
             id="path1124" />
        </g>
      </g>
    </g>
  </g>
</svg>
